<?xml version="1.0" encoding="UTF-8" standalone="no"?>
<svg
   width="480"
   height="480"
   viewBox="0 0 480 480"
   fill="none"
   version="1.1"
   id="svg6"
   sodipodi:docname="happy.svg"
   inkscape:version="1.4 (86a8ad7, 2024-10-11)"
   xmlns:inkscape="http://www.inkscape.org/namespaces/inkscape"
   xmlns:sodipodi="http://sodipodi.sourceforge.net/DTD/sodipodi-0.dtd"
   xmlns="http://www.w3.org/2000/svg"
   xmlns:svg="http://www.w3.org/2000/svg">
  <defs
     id="defs6" />
  <sodipodi:namedview
     id="namedview6"
     pagecolor="#ffffff"
     bordercolor="#000000"
     borderopacity="0.25"
     inkscape:showpageshadow="2"
     inkscape:pageopacity="0.0"
     inkscape:pagecheckerboard="0"
     inkscape:deskcolor="#d1d1d1"
     showgrid="false"
     inkscape:zoom="0.60030419"
     inkscape:cx="51.640485"
     inkscape:cy="412.29097"
     inkscape:window-width="1920"
     inkscape:window-height="1017"
     inkscape:window-x="-8"
     inkscape:window-y="-8"
     inkscape:window-maximized="1"
     inkscape:current-layer="svg6" />
  <path
     d="m 237.09488,67.695115 1.16042,-0.0109 0.69315,-0.933017 c 3.87536,-5.224268 6.2227,-11.942297 6.2227,-18.993658 0,-17.62918 -14.2725,-32.09327 -32.09794,-31.931122 -17.64009,0.0059 -31.92038,14.289481 -31.92038,31.931122 0,7.180643 2.33332,14.272502 6.77722,19.569979 l 0.70872,0.845789 1.10436,-0.0109 z"
     fill="#ffffff"
     stroke="#000000"
     stroke-width="3"
     id="path1" />
  <path
     d="m 322.76416,67.695115 1.16043,-0.0109 0.69314,-0.933017 c 3.87536,-5.224268 6.2227,-11.942297 6.2227,-18.993658 0,-17.62918 -14.2725,-32.09327 -32.09794,-31.931122 -17.64008,0.0059 -31.92037,14.289481 -31.92037,31.931122 0,7.180643 2.33332,14.272502 6.77721,19.569979 l 0.70872,0.845789 1.10436,-0.0109 z"
     fill="#ffffff"
     stroke="#000000"
     stroke-width="3"
     id="path2" />
  <path
     d="m 221.64948,24.54895 c -2.02491,0.155762 -3.58253,1.713386 -3.58253,3.738296 0,2.02491 1.71338,3.738296 3.73829,3.738296 2.02492,0 3.7383,-1.713386 3.7383,-3.738296 0,-2.02491 -1.71338,-3.738296 -3.7383,-3.738296 h -0.15576 l 4.51711,-1.557623 c 6.69778,0 11.9937,5.451681 11.9937,11.993699 0,6.542018 -5.45168,11.993699 -11.9937,11.993699 -6.54202,0 -11.9937,-5.451681 -11.9937,-11.993699 0,-6.542018 5.45168,-11.993699 11.9937,-11.993699"
     fill="#000000"
     id="path3"
     style="stroke-width:1.55762" />
  <path
     d="m 307.31876,24.54895 c -2.02491,0.155762 -3.58253,1.713386 -3.58253,3.738296 0,2.02491 1.71339,3.738296 3.7383,3.738296 2.02491,0 3.73829,-1.713386 3.73829,-3.738296 0,-2.02491 -1.71338,-3.738296 -3.73829,-3.738296 h -0.15577 l 4.51711,-1.557623 c 6.69778,0 11.9937,5.451681 11.9937,11.993699 0,6.542018 -5.45168,11.993699 -11.9937,11.993699 -6.54202,0 -11.9937,-5.451681 -11.9937,-11.993699 0,-6.542018 5.45168,-11.993699 11.9937,-11.993699"
     fill="#000000"
     id="path4"
     style="stroke-width:1.55762" />
  <path
     d="m 206.6963,112.24314 h 100.31094 c -23.9874,99.37637 -39.09635,164.1735 -39.09635,235.20112 0,12.46098 0,108.25482 36.44839,108.25482 18.69148,0 34.57924,-16.82233 34.57924,-31.93128 0,-4.36135 0,-6.23049 -6.2305,-19.47029 -23.9874,-61.2146 -23.9874,-137.53814 -23.9874,-143.76863 0,-5.29592 0,-68.37966 18.69148,-148.12998 h 99.37637 c 11.52641,0 40.80973,0 40.80973,-28.34874 0,-19.470291 -16.82233,-19.470291 -32.86585,-19.470291 H 142.83374 c -20.40486,0 -50.622753,0 -91.432483,43.457691 C 28.348432,133.73834 0,180.77857 0,186.07449 c 0,5.29591 4.3613452,7.16506 9.8130267,7.16506 6.2304933,0 7.1650673,-2.64796 11.5264123,-7.94388 46.105338,-72.741 92.210991,-72.741 114.485001,-72.741 h 50.62276 c -19.47029,66.51051 -41.74431,143.76863 -114.485316,299.06367 -7.165067,14.17437 -7.165067,16.04352 -7.165067,21.33944 0,18.69148 16.04352,23.05282 23.987399,23.05282 25.700784,0 32.865854,-23.05282 43.457694,-60.28002 14.17437,-45.32684 14.17437,-47.04022 23.05282,-82.55403 z"
     fill="#0c7f99"
     id="path5"
     style="stroke-width:1.55762" />
  <path
     d="m 224.45632,89.190317 c 7.63235,5.140156 13.86285,12.928273 31.93128,12.772513 22.89706,0 25.23349,-10.747603 25.38926,-11.370653 l -0.46729,-2.959484 c -3.58253,1.713386 -4.82863,8.878453 -24.61045,8.566928 -15.88776,-0.311524 -21.18367,-3.738296 -30.52941,-9.501502"
     fill="#000000"
     id="path6"
     style="stroke-width:1.55762" />
</svg>
